<?xml version="1.0" standalone="no"?>
<!DOCTYPE svg PUBLIC "-//W3C//DTD SVG 20010904//EN"
 "http://www.w3.org/TR/2001/REC-SVG-20010904/DTD/svg10.dtd">
<svg version="1.0" xmlns="http://www.w3.org/2000/svg"
 width="700.000000pt" height="700.000000pt" viewBox="0 0 700.000000 700.000000"
 preserveAspectRatio="xMidYMid meet">
<metadata>
Created by potrace 1.11, written by Peter Selinger 2001-2013
</metadata>
<g transform="translate(0.000000,700.000000) scale(0.100000,-0.100000)"
fill="#000000" stroke="none">
<path d="M1748 6126 l-3 -291 -155 -1 c-85 0 -182 -4 -215 -8 -184 -24 -351
-146 -434 -318 -23 -48 -45 -113 -52 -153 -9 -53 -12 -576 -13 -2150 0 -1144
3 -2100 6 -2125 4 -25 11 -57 17 -72 6 -16 8 -28 6 -28 -8 0 44 -100 77 -148
85 -123 223 -211 378 -240 19 -3 991 -6 2160 -6 l2125 0 76 26 c212 74 368
258 396 470 4 29 7 996 7 2148 0 1945 -1 2100 -17 2159 -38 141 -115 253 -230
335 -126 89 -230 112 -489 110 l-138 -1 0 292 0 292 -287 0 c-159 0 -290 -4
-293 -8 -3 -4 -5 -135 -4 -291 l0 -284 -1166 0 -1166 -1 1 292 0 291 -292 0
-293 0 -2 -290z m3787 -1757 c5 -6 7 -980 5 -2834 l0 -370 -2040 0 -2040 0 0
75 c-3 565 0 3122 4 3128 5 9 4062 10 4071 1z"/>
<path d="M2047 3782 c-3 -4 -5 -134 -5 -290 l0 -282 291 0 292 0 0 290 0 290
-287 0 c-158 0 -289 -3 -291 -8z"/>
<path d="M3210 3500 l0 -290 290 0 290 0 0 290 0 290 -290 0 -290 0 0 -290z"/>
<path d="M4375 3500 l0 -290 292 0 292 0 -1 290 0 290 -292 0 -291 0 0 -290z"/>
</g>
</svg>
